<?xml version="1.0" encoding="utf-8"?>
<!-- Generator: Adobe Illustrator 19.0.0, SVG Export Plug-In . SVG Version: 6.00 Build 0)  -->
<svg version="1.1" id="Layer_1" xmlns="http://www.w3.org/2000/svg" xmlns:xlink="http://www.w3.org/1999/xlink" x="0px" y="0px"
	 viewBox="0 0 500 500" style="enable-background:new 0 0 500 500;" xml:space="preserve">
<style type="text/css">
	.st0{fill:#007DB8;}
	.st1{fill:#808080;}
</style>
<g id="XMLID_1_">
	<path id="XMLID_6_" class="st0" d="M149.5,218.4l-32,24.6c-3.3-12.3-13.9-21.3-27.1-21.3h-23v56.6h23c13.1,0,24.6-9,27.1-21.3
		l32,24.6l32-24.6v21.3h36.1v-11.5h-23.8v-45.1h-13.1V243l-30.4,24.6l-6.6-5.7l14.8-11.5l15.6-12.3l-9-7.4l-30.4,23.8l-6.6-5.7
		l30.4-23L149.5,218.4L149.5,218.4L149.5,218.4z M79.8,233.2h9.8c2.1,0,4.1,0.5,5.9,1.3c1.8,0.8,3.5,2.1,5,3.6
		c1.4,1.5,2.6,3.4,3.4,5.5c0.8,2.1,1.3,4.4,1.3,6.9c0,2.3-0.4,4.5-1.2,6.5c-0.8,2-1.9,3.9-3.2,5.5c-1.4,1.6-3.1,2.9-4.9,3.8
		c-1.9,0.9-4,1.4-6.2,1.4h-9.8V233.2z M258.6,266.8v11.5h-36.1v-56.6h13.1v45.1L258.6,266.8L258.6,266.8z"/>
	<path id="XMLID_10_" class="st1" d="M410.6,279.3c11.1,0,20.1-5.6,21.9-17.7l-0.7-0.7h-3.1l-0.7,0.7c-1.7,8.7-7.3,13.5-17,13.5
		c-12.1,0-20.8-9-20.8-25c0-16,9-25,20.8-25c9.7,0,15.3,4.9,17,12.8l0.7,0.7h3.1l0.7-0.7c-1.7-11.1-10.4-17-21.9-17
		c-13.5,0-25.7,9.7-25.7,28.8C385,269.6,397.1,279.3,410.6,279.3L410.6,279.3z M375.2,277.6v-54.8l-0.7-0.7H369l-0.7,0.7l-20.8,48.9
		h-0.7l-21.5-48.9l-0.7-0.7H319l-0.7,0.7v54.8l0.7,0.7h3.1l0.7-0.7v-46.5h0.7l20.1,46.5l0.7,0.7h4.2l0.7-0.7l20.1-46.5h1v46.5
		l0.7,0.7h3.1L375.2,277.6L375.2,277.6z M307.6,277.6v-2.4l-0.7-0.7H277l-0.7-0.7V253l0.7-0.7h28.1l0.7-0.7v-2.8l-0.7-0.7H277
		l-0.7-0.7v-20.5l0.7-0.7h29.8l0.7-0.7v-2.8l-0.7-0.7h-34.7l-0.7,0.7v54.8l0.7,0.7h34.7L307.6,277.6L307.6,277.6z"/>
</g>
</svg>
